<svg width="200" height="200" viewBox="0 0 200 200" fill="none" xmlns="http://www.w3.org/2000/svg">
<g clip-path="url(#clip0_348_30)">
<path d="M199.895 101.871C199.895 93.6771 199.214 87.6977 197.742 81.4969H101.992V118.48H158.195C157.062 127.671 150.943 141.512 137.346 150.813L137.155 152.051L167.429 174.969L169.527 175.174C188.789 157.789 199.895 132.211 199.895 101.871Z" fill="#4285F4"/>
<path d="M101.992 199.313C129.526 199.313 152.642 190.454 169.526 175.174L137.345 150.813C128.733 156.682 117.175 160.779 101.992 160.779C75.0233 160.779 52.1342 143.395 43.9749 119.366L42.7789 119.466L11.2994 143.273L10.8877 144.391C27.6578 176.945 62.1051 199.313 101.992 199.313Z" fill="#34A853"/>
<path d="M43.9748 119.366C41.8219 113.166 40.5759 106.521 40.5759 99.6565C40.5759 92.7908 41.8219 86.1473 43.8615 79.9466L43.8045 78.626L11.9304 54.4366L10.8875 54.9214C3.97576 68.4305 0.00976562 83.6008 0.00976562 99.6565C0.00976562 115.712 3.97576 130.882 10.8875 144.391L43.9748 119.366Z" fill="#FBBC05"/>
<path d="M101.992 38.5336C121.141 38.5336 134.059 46.6168 141.424 53.3718L170.206 25.9107C152.529 9.85496 129.526 0 101.992 0C62.1051 0 27.6578 22.3672 10.8877 54.9214L43.8616 79.9466C52.1342 55.9183 75.0233 38.5336 101.992 38.5336Z" fill="#EB4335"/>
</g>
<defs>
<clipPath id="clip0_348_30">
<rect width="200" height="200" fill="white"/>
</clipPath>
</defs>
</svg>
