<svg width="60" height="60" viewBox="0 0 60 60" fill="none" xmlns="http://www.w3.org/2000/svg">
<rect width="60" height="60" rx="30" fill="#E9E9E9"/>
<g clip-path="url(#clip0_325_13)">
<path d="M11.875 19.375H13.75C13.9158 19.375 14.0747 19.3092 14.1919 19.1919C14.3092 19.0747 14.375 18.9158 14.375 18.75C14.375 18.5842 14.3092 18.4253 14.1919 18.3081C14.0747 18.1908 13.9158 18.125 13.75 18.125H11.875C11.7092 18.125 11.5503 18.1908 11.4331 18.3081C11.3158 18.4253 11.25 18.5842 11.25 18.75C11.25 18.9158 11.3158 19.0747 11.4331 19.1919C11.5503 19.3092 11.7092 19.375 11.875 19.375ZM24.5812 19.375H28.1938C28.3595 19.375 28.5185 19.3092 28.6357 19.1919C28.7529 19.0747 28.8188 18.9158 28.8188 18.75C28.8188 18.5842 28.7529 18.4253 28.6357 18.3081C28.5185 18.1908 28.3595 18.125 28.1938 18.125H24.5812C24.4155 18.125 24.2565 18.1908 24.1393 18.3081C24.0221 18.4253 23.9562 18.5842 23.9562 18.75C23.9562 18.9158 24.0221 19.0747 24.1393 19.1919C24.2565 19.3092 24.4155 19.375 24.5812 19.375ZM17.3625 19.375H20.975C21.1408 19.375 21.2997 19.3092 21.4169 19.1919C21.5342 19.0747 21.6 18.9158 21.6 18.75C21.6 18.5842 21.5342 18.4253 21.4169 18.3081C21.2997 18.1908 21.1408 18.125 20.975 18.125H17.3625C17.1967 18.125 17.0378 18.1908 16.9206 18.3081C16.8033 18.4253 16.7375 18.5842 16.7375 18.75C16.7375 18.9158 16.8033 19.0747 16.9206 19.1919C17.0378 19.3092 17.1967 19.375 17.3625 19.375ZM31.8062 19.375H35.4187C35.5845 19.375 35.7435 19.3092 35.8607 19.1919C35.9779 19.0747 36.0437 18.9158 36.0437 18.75C36.0437 18.5842 35.9779 18.4253 35.8607 18.3081C35.7435 18.1908 35.5845 18.125 35.4187 18.125H31.8062C31.6405 18.125 31.4815 18.1908 31.3643 18.3081C31.2471 18.4253 31.1812 18.5842 31.1812 18.75C31.1812 18.9158 31.2471 19.0747 31.3643 19.1919C31.4815 19.3092 31.6405 19.375 31.8062 19.375Z" fill="#303030"/>
<path d="M46.2498 19.375H48.1248C48.2905 19.375 48.4495 19.3092 48.5667 19.1919C48.6839 19.0747 48.7498 18.9158 48.7498 18.75C48.7498 18.5842 48.6839 18.4253 48.5667 18.3081C48.4495 18.1909 48.2905 18.125 48.1248 18.125H46.2498C46.2015 18.1288 46.1538 18.1385 46.1079 18.1538L47.4423 15.2619C47.5117 15.1114 47.5185 14.9394 47.4612 14.7839C47.4039 14.6284 47.2871 14.502 47.1366 14.4325C46.9861 14.3631 46.8142 14.3562 46.6587 14.4136C46.5031 14.4709 46.3767 14.5876 46.3073 14.7381L43.0079 21.8863L41.2141 19.375H42.6373C42.803 19.375 42.962 19.3092 43.0792 19.1919C43.1964 19.0747 43.2623 18.9158 43.2623 18.75C43.2623 18.5842 43.1964 18.4253 43.0792 18.3081C42.962 18.1909 42.803 18.125 42.6373 18.125H39.031C38.8653 18.125 38.7063 18.1909 38.5891 18.3081C38.4719 18.4253 38.406 18.5842 38.406 18.75C38.406 18.9158 38.4719 19.0747 38.5891 19.1919C38.7063 19.3092 38.8653 19.375 39.031 19.375H39.086L35.5535 28.4594L30.5591 18.4706C30.5054 18.3604 30.4199 18.2687 30.3137 18.2073C30.2074 18.1459 30.0853 18.1177 29.9629 18.1263C29.8409 18.1334 29.7238 18.1762 29.6259 18.2493C29.528 18.3224 29.4537 18.4226 29.4123 18.5375L25.4985 29.375H24.581C24.4153 29.375 24.2563 29.4409 24.1391 29.5581C24.0219 29.6753 23.956 29.8342 23.956 30C23.956 30.1658 24.0219 30.3247 24.1391 30.442C24.2563 30.5592 24.4153 30.625 24.581 30.625H25.0473L21.8148 39.5763L17.8366 30.625H20.9679C21.1336 30.625 21.2926 30.5592 21.4098 30.442C21.527 30.3247 21.5929 30.1658 21.5929 30C21.5929 29.8342 21.527 29.6753 21.4098 29.5581C21.2926 29.4409 21.1336 29.375 20.9679 29.375H17.3616C17.2801 29.3752 17.1994 29.3916 17.1241 29.4231C17.0432 29.386 16.9543 29.3695 16.8654 29.375C16.7429 29.377 16.6237 29.4148 16.5226 29.4839C16.4215 29.5531 16.3429 29.6504 16.2966 29.7638L11.8504 40.63C11.7307 40.6334 11.6145 40.6715 11.516 40.7397C11.4175 40.8079 11.3409 40.9032 11.2955 41.014C11.2501 41.1248 11.2379 41.2465 11.2603 41.3641C11.2827 41.4818 11.3387 41.5905 11.4216 41.6769L10.6704 43.5138C10.6394 43.5898 10.6236 43.6711 10.624 43.7532C10.6245 43.8353 10.641 43.9165 10.6728 43.9922C10.7046 44.0679 10.751 44.1365 10.8094 44.1943C10.8677 44.252 10.9369 44.2977 11.0129 44.3288C11.0889 44.3598 11.1703 44.3755 11.2523 44.3751C11.3344 44.3747 11.4156 44.3581 11.4913 44.3263C11.567 44.2945 11.6357 44.2481 11.6934 44.1898C11.7512 44.1314 11.7969 44.0623 11.8279 43.9863L12.6923 41.875H13.7498C13.9155 41.875 14.0745 41.8092 14.1917 41.6919C14.3089 41.5747 14.3748 41.4158 14.3748 41.25C14.3748 41.0842 14.3089 40.9253 14.1917 40.8081C14.0745 40.6909 13.9155 40.625 13.7498 40.625H13.2035L16.8985 31.5925L20.9129 40.625H17.3623C17.1965 40.625 17.0375 40.6909 16.9203 40.8081C16.8031 40.9253 16.7373 41.0842 16.7373 41.25C16.7373 41.4158 16.8031 41.5747 16.9203 41.6919C17.0375 41.8092 17.1965 41.875 17.3623 41.875H20.9748C21.0591 41.8748 21.1425 41.8571 21.2196 41.823C21.2968 41.7889 21.366 41.7391 21.4229 41.6769C21.4956 41.7549 21.5871 41.8128 21.6887 41.8452C21.7902 41.8775 21.8984 41.8832 22.0028 41.8617C22.1072 41.8402 22.2043 41.7921 22.2848 41.7222C22.3652 41.6523 22.4264 41.5629 22.4623 41.4625L26.376 30.625H28.1935C28.3593 30.625 28.5182 30.5592 28.6355 30.442C28.7527 30.3247 28.8185 30.1658 28.8185 30C28.8185 29.8342 28.7527 29.6753 28.6355 29.5581C28.5182 29.4409 28.3593 29.375 28.1935 29.375H26.8273L30.0923 20.3331L34.6135 29.375H31.806C31.6402 29.375 31.4813 29.4409 31.3641 29.5581C31.2469 29.6753 31.181 29.8342 31.181 30C31.181 30.1658 31.2469 30.3247 31.3641 30.442C31.4813 30.5592 31.6402 30.625 31.806 30.625H35.4185C35.4466 30.6214 35.4744 30.6158 35.5016 30.6081C35.5515 30.6194 35.6024 30.6248 35.6535 30.6244C35.7744 30.6187 35.8911 30.5781 35.9894 30.5074C36.0877 30.4367 36.1634 30.3391 36.2073 30.2263L40.1635 20.0538L42.616 23.4881C42.6796 23.5772 42.7655 23.6481 42.865 23.6935C42.9646 23.739 43.0743 23.7576 43.1833 23.7473C43.2923 23.7371 43.3966 23.6984 43.4859 23.6351C43.5753 23.5719 43.6464 23.4863 43.6923 23.3869L45.7016 19.0338C45.7527 19.1356 45.8309 19.2213 45.9277 19.2815C46.0244 19.3418 46.1358 19.3741 46.2498 19.375ZM11.8748 30.625H13.7498C13.9155 30.625 14.0745 30.5592 14.1917 30.442C14.3089 30.3247 14.3748 30.1658 14.3748 30C14.3748 29.8342 14.3089 29.6753 14.1917 29.5581C14.0745 29.4409 13.9155 29.375 13.7498 29.375H11.8748C11.709 29.375 11.55 29.4409 11.4328 29.5581C11.3156 29.6753 11.2498 29.8342 11.2498 30C11.2498 30.1658 11.3156 30.3247 11.4328 30.442C11.55 30.5592 11.709 30.625 11.8748 30.625ZM42.6373 29.375H39.031C38.8653 29.375 38.7063 29.4409 38.5891 29.5581C38.4719 29.6753 38.406 29.8342 38.406 30C38.406 30.1658 38.4719 30.3247 38.5891 30.442C38.7063 30.5592 38.8653 30.625 39.031 30.625H42.6373C42.803 30.625 42.962 30.5592 43.0792 30.442C43.1964 30.3247 43.2623 30.1658 43.2623 30C43.2623 29.8342 43.1964 29.6753 43.0792 29.5581C42.962 29.4409 42.803 29.375 42.6373 29.375ZM48.1248 29.375H46.2498C46.084 29.375 45.925 29.4409 45.8078 29.5581C45.6906 29.6753 45.6248 29.8342 45.6248 30C45.6248 30.1658 45.6906 30.3247 45.8078 30.442C45.925 30.5592 46.084 30.625 46.2498 30.625H48.1248C48.2905 30.625 48.4495 30.5592 48.5667 30.442C48.6839 30.3247 48.7498 30.1658 48.7498 30C48.7498 29.8342 48.6839 29.6753 48.5667 29.5581C48.4495 29.4409 48.2905 29.375 48.1248 29.375ZM48.1248 40.625H46.2498C46.084 40.625 45.925 40.6909 45.8078 40.8081C45.6906 40.9253 45.6248 41.0842 45.6248 41.25C45.6248 41.4158 45.6906 41.5747 45.8078 41.6919C45.925 41.8092 46.084 41.875 46.2498 41.875H48.1248C48.2905 41.875 48.4495 41.8092 48.5667 41.6919C48.6839 41.5747 48.7498 41.4158 48.7498 41.25C48.7498 41.0842 48.6839 40.9253 48.5667 40.8081C48.4495 40.6909 48.2905 40.625 48.1248 40.625ZM42.6373 40.625H39.0248C38.859 40.625 38.7 40.6909 38.5828 40.8081C38.4656 40.9253 38.3998 41.0842 38.3998 41.25C38.3998 41.4158 38.4656 41.5747 38.5828 41.6919C38.7 41.8092 38.859 41.875 39.0248 41.875H42.6373C42.803 41.875 42.962 41.8092 43.0792 41.6919C43.1964 41.5747 43.2623 41.4158 43.2623 41.25C43.2623 41.0842 43.1964 40.9253 43.0792 40.8081C42.962 40.6909 42.803 40.625 42.6373 40.625ZM35.4185 40.625H31.806C31.6402 40.625 31.4813 40.6909 31.3641 40.8081C31.2469 40.9253 31.181 41.0842 31.181 41.25C31.181 41.4158 31.2469 41.5747 31.3641 41.6919C31.4813 41.8092 31.6402 41.875 31.806 41.875H35.4185C35.5843 41.875 35.7432 41.8092 35.8605 41.6919C35.9777 41.5747 36.0435 41.4158 36.0435 41.25C36.0435 41.0842 35.9777 40.9253 35.8605 40.8081C35.7432 40.6909 35.5843 40.625 35.4185 40.625ZM28.1935 40.625H24.581C24.4153 40.625 24.2563 40.6909 24.1391 40.8081C24.0219 40.9253 23.956 41.0842 23.956 41.25C23.956 41.4158 24.0219 41.5747 24.1391 41.6919C24.2563 41.8092 24.4153 41.875 24.581 41.875H28.1935C28.3593 41.875 28.5182 41.8092 28.6355 41.6919C28.7527 41.5747 28.8185 41.4158 28.8185 41.25C28.8185 41.0842 28.7527 40.9253 28.6355 40.8081C28.5182 40.6909 28.3593 40.625 28.1935 40.625Z" fill="#303030"/>
</g>
<defs>
<clipPath id="clip0_325_13">
<rect width="40" height="40" fill="white" transform="translate(10 10)"/>
</clipPath>
</defs>
</svg>
